<?xml version="1.0" encoding="UTF-8"?>
<svg width="31px" height="19px" viewBox="0 0 31 19" version="1.1" xmlns="http://www.w3.org/2000/svg" xmlns:xlink="http://www.w3.org/1999/xlink">
    <!-- Generator: Sketch 52.2 (67145) - http://www.bohemiancoding.com/sketch -->
    <title></title>
    <desc>Created with Sketch.</desc>
    <g id="Website" stroke="none" stroke-width="1" fill="none" fill-rule="evenodd">
        <g id="Desktop-HD-Copy-2" transform="translate(-857.000000, -374.000000)" fill="#040404">
            <path d="M878.628906,392.621094 C878.246092,392.238279 878.246092,391.855471 878.628906,391.472656 L885.041016,384.390625 L857.765625,384.390625 C857.255206,384.390625 857,384.135419 857,383.625 C857,383.114581 857.255206,382.859375 857.765625,382.859375 L885.041016,382.859375 L878.628906,375.777344 C878.246092,375.394529 878.246092,375.011721 878.628906,374.628906 C879.011721,374.246092 879.394529,374.246092 879.777344,374.628906 C884.817734,380.179715 887.369791,382.986979 887.433594,383.050781 C887.561199,383.178386 887.625,383.36979 887.625,383.625 C887.625,383.88021 887.561199,384.071614 887.433594,384.199219 L879.777344,392.621094 C879.649739,392.748699 879.458335,392.8125 879.203125,392.8125 C878.947915,392.8125 878.756511,392.748699 878.628906,392.621094 Z" id=""></path>
        </g>
    </g>
</svg>