<?xml version="1.0" encoding="UTF-8"?>
<svg width="17px" height="22px" viewBox="0 0 17 22" version="1.1" xmlns="http://www.w3.org/2000/svg" xmlns:xlink="http://www.w3.org/1999/xlink">
    <!-- Generator: Sketch 52.2 (67145) - http://www.bohemiancoding.com/sketch -->
    <title></title>
    <desc>Created with Sketch.</desc>
    <g id="Website" stroke="none" stroke-width="1" fill="none" fill-rule="evenodd">
        <g id="Desktop-HD-Copy-2" transform="translate(-916.000000, -368.000000)" fill="#040404">
            <path d="M920,374.5 C920.09375,373.468745 920.531246,372.843751 921.3125,372.625 L921.359375,372.578125 C922.015628,372.421874 922.34375,372.109377 922.34375,371.640625 L922.34375,370.65625 C922.34375,370.062497 922.554685,369.55469 922.976562,369.132812 C923.39844,368.710935 923.906247,368.5 924.5,368.5 C925.093753,368.5 925.60156,368.710935 926.023438,369.132812 C926.445315,369.55469 926.65625,370.062497 926.65625,370.65625 L926.65625,371.640625 C926.65625,372.140627 926.984372,372.468749 927.640625,372.625 L927.734375,372.625 C928.484379,372.843751 928.90625,373.468745 929,374.5 L920,374.5 Z M924.5,370 C924.093748,370 923.890625,370.218748 923.890625,370.65625 C923.890625,371.093752 924.093748,371.3125 924.5,371.3125 C924.937502,371.3125 925.15625,371.093752 925.15625,370.65625 C925.15625,370.218748 924.937502,370 924.5,370 Z M931.484375,370 C931.828127,370 932.124999,370.124999 932.375,370.375 C932.625001,370.625001 932.75,370.937498 932.75,371.3125 L932.75,388.1875 C932.75,388.562502 932.625001,388.874999 932.375,389.125 C932.124999,389.375001 931.828127,389.5 931.484375,389.5 L917.5625,389.5 C917.218748,389.5 916.914064,389.375001 916.648438,389.125 C916.382811,388.874999 916.25,388.562502 916.25,388.1875 L916.25,371.3125 C916.25,370.937498 916.382811,370.625001 916.648438,370.375 C916.914064,370.124999 917.218748,370 917.5625,370 L920.984375,370 L920.984375,370.609375 C920.984375,370.859376 920.898438,371.070312 920.726562,371.242188 C920.554687,371.414063 920.343751,371.5 920.09375,371.5 L918.359375,371.5 C917.984373,371.5 917.796875,371.703123 917.796875,372.109375 L917.796875,387.4375 C917.796875,387.812502 917.968748,388 918.3125,388 L930.734375,388 C931.078127,388 931.25,387.812502 931.25,387.4375 L931.25,372.109375 C931.25,371.703123 931.062502,371.5 930.6875,371.5 L928.953125,371.5 C928.703124,371.5 928.484376,371.414063 928.296875,371.242188 C928.109374,371.070312 928.015625,370.859376 928.015625,370.609375 L928.015625,370 L931.484375,370 Z M919.25,377.5 L919.25,376 L924.5,376 L924.5,377.5 L919.25,377.5 Z M919.25,386.5 L919.25,385 L926.75,385 L926.75,386.5 L919.25,386.5 Z M919.25,383.5 L919.25,382 L925.296875,382 L925.296875,383.5 L919.25,383.5 Z M919.25,380.5 L919.25,379 L929,379 L929,380.5 L919.25,380.5 Z" id=""></path>
        </g>
    </g>
</svg>