<?xml version="1.0" encoding="UTF-8"?>
<svg width="123px" height="34px" viewBox="0 0 123 34" version="1.1" xmlns="http://www.w3.org/2000/svg" xmlns:xlink="http://www.w3.org/1999/xlink">
    <!-- Generator: Sketch 52.2 (67145) - http://www.bohemiancoding.com/sketch -->
    <title>wb3.io/</title>
    <desc>Created with Sketch.</desc>
    <g id="Website" stroke="none" stroke-width="1" fill="none" fill-rule="evenodd">
        <g id="Desktop-HD-Copy-2" transform="translate(-551.000000, -374.000000)" fill="#000000">
            <path d="M552.042772,385.226988 L551,385.226988 L551,384.042002 L558.133168,384.042002 L558.133168,385.226988 L556.319651,385.226988 L560.505853,394.798034 L564.797844,384.042002 L565.85573,384.042002 L570.66155,394.76765 L574.25836,385.226988 L572.051914,385.226988 L572.051914,384.042002 L577.280889,384.042002 L577.280889,385.226988 L575.603385,385.226988 L570.08727,399.887399 L568.878258,399.887399 L564.0271,389.359249 L559.825784,399.887399 L558.631885,399.887399 L552.042772,385.226988 Z M584.209734,385.697945 C585.378451,384.421799 587.166763,383.783735 589.574723,383.783735 C590.360584,383.783735 591.184215,383.938187 592.04564,384.247096 C592.907065,384.556004 593.665209,385.039615 594.320093,385.697945 C595.720539,387.126013 596.420751,389.121226 596.420751,391.683646 C596.420751,394.246066 595.690314,396.25394 594.229417,397.707328 C592.768521,399.160716 590.985247,399.887399 588.879541,399.887399 C587.529471,399.887399 586.28521,399.60888 585.146718,399.051832 C584.794088,398.879654 584.481763,398.687222 584.209734,398.474531 L584.209734,399.583557 L578.01355,399.583557 L578.01355,398.39857 L580.280446,398.39857 L580.280446,375.215371 L578.01355,375.215371 L578.01355,374 L584.209734,374 L584.209734,385.697945 Z M588.24481,398.580876 C590.874423,398.580876 592.18921,396.352718 592.18921,391.896336 C592.18921,388.584434 591.478923,386.498068 590.058327,385.637176 C589.564645,385.333332 588.934958,385.186476 588.169247,385.196604 C587.403536,385.206732 586.665542,385.424484 585.955244,385.849866 C585.244947,386.275248 584.663116,386.837351 584.209734,387.536193 L584.209734,396.848972 C584.96537,397.669352 585.957757,398.206135 587.186925,398.459339 C587.54963,398.540364 587.902255,398.580876 588.24481,398.580876 Z M611.162833,381.580876 C611.162833,378.72474 609.837971,377.296693 607.188208,377.296693 C605.566109,377.296693 604.367185,377.686621 603.591398,378.466488 C604.105231,378.588026 604.508231,378.848821 604.80041,379.248883 C605.092589,379.648945 605.238677,380.041404 605.238677,380.426273 C605.238677,381.135243 605.032139,381.702411 604.619058,382.127793 C604.205977,382.553175 603.742527,382.765862 603.228695,382.765862 C602.392458,382.765862 601.792995,382.532919 601.43029,382.067024 C601.067585,381.60113 600.886235,381.117518 600.886235,380.616175 C600.886235,380.114832 600.986985,379.671733 601.188488,379.286863 C601.389991,378.901994 601.667053,378.547514 602.019683,378.223414 C602.704793,377.565085 603.593912,377.035897 604.687065,376.635836 C605.780218,376.235774 606.901062,376.035746 608.049628,376.035746 C610.376987,376.035746 612.172855,376.524422 613.437286,377.501787 C614.701717,378.479153 615.333923,379.788196 615.333923,381.428954 C615.333923,382.755741 614.847805,383.960972 613.875553,385.044683 C612.903301,386.128394 611.616221,386.827225 610.014272,387.141197 C611.989001,387.262735 613.588407,387.832435 614.812537,388.850313 C616.036667,389.868191 616.648723,391.162042 616.648723,392.731903 C616.648723,394.970223 615.777236,396.722365 614.034236,397.988382 C612.291235,399.2544 610.044511,399.887399 607.293996,399.887399 C605.46032,399.887399 603.865951,399.472152 602.510844,398.641644 C601.155737,397.811137 600.478194,396.717314 600.478194,395.360143 C600.478194,394.742326 600.692287,394.218203 601.120481,393.787757 C601.548675,393.357311 601.994493,393.142091 602.45795,393.142091 C603.223661,393.142091 603.823123,393.359843 604.256355,393.795353 C604.689586,394.230863 604.906198,394.711943 604.906198,395.238606 C604.906198,395.765269 604.772705,396.231157 604.505713,396.636282 C604.238722,397.041408 603.853353,397.324992 603.349596,397.487042 C604.064931,398.074474 604.931381,398.428954 605.948971,398.550492 C606.372127,398.601132 606.956477,398.626452 607.702038,398.626452 C609.21331,398.626452 610.37949,398.155501 611.200615,397.213584 C612.021739,396.271666 612.432295,395.04618 612.432295,393.537087 C612.432295,392.027994 611.895802,390.777187 610.822799,389.784629 C609.749796,388.792071 608.41234,388.2958 606.810392,388.2958 C606.256259,388.2958 605.702134,388.361632 605.148001,388.493298 L605.148001,387.080429 C607.072354,387.080429 608.555897,386.563902 609.598674,385.530831 C610.641452,384.497761 611.162833,383.181122 611.162833,381.580876 Z M621.733826,397.441466 C621.733826,396.357754 622.217426,395.603219 623.18464,395.177837 C623.476819,395.0563 623.794181,394.995532 624.136736,394.995532 C624.821846,394.995532 625.396121,395.228475 625.859578,395.69437 C626.323034,396.160264 626.554759,396.740092 626.554759,397.43387 C626.554759,398.127647 626.325553,398.704943 625.867134,399.165773 C625.408715,399.626603 624.83444,399.857015 624.144293,399.857015 C623.454145,399.857015 622.87987,399.626603 622.421451,399.165773 C621.963032,398.704943 621.733826,398.130179 621.733826,397.441466 Z M636.460796,380.335121 C636.05779,380.740246 635.569152,380.942806 634.994869,380.942806 C634.420586,380.942806 633.926911,380.742778 633.51383,380.342717 C633.100749,379.942655 632.894211,379.519812 632.894211,379.074173 C632.894211,378.324691 633.095711,377.747396 633.498717,377.34227 C633.901723,376.937144 634.395398,376.734584 634.979756,376.734584 C635.90667,376.734584 636.546432,377.15996 636.899062,378.010724 C637.009889,378.263927 637.065301,378.537383 637.065301,378.831099 C637.065301,379.42866 636.863801,379.929995 636.460796,380.335121 Z M630.536639,398.39857 L632.984887,398.39857 L632.984887,385.226988 L630.748216,385.226988 L630.748216,384.042002 L636.989738,384.042002 L636.989738,398.39857 L639.437987,398.39857 L639.437987,399.583557 L630.536639,399.583557 L630.536639,398.39857 Z M641.334321,391.805183 C641.334321,389.414942 642.089946,387.480496 643.601218,386.001787 C645.11249,384.523079 647.014145,383.783735 649.306241,383.783735 C651.598337,383.783735 653.487399,384.520547 654.973483,385.994191 C656.459567,387.467836 657.202598,389.402282 657.202598,391.797587 C657.202598,394.192893 656.464604,396.139998 654.988595,397.638963 C653.512586,399.137928 651.621006,399.887399 649.313797,399.887399 C647.006589,399.887399 645.099896,399.137928 643.593662,397.638963 C642.087427,396.139998 641.334321,394.195425 641.334321,391.805183 Z M649.26846,398.626452 C647.868014,398.626452 646.865552,397.963069 646.261043,396.636282 C645.777436,395.542443 645.535636,393.921965 645.535636,391.774799 C645.535636,390.812626 645.586011,389.921362 645.686763,389.100983 C646.039393,386.406897 647.23328,385.059875 649.26846,385.059875 C650.67898,385.059875 651.681442,385.697938 652.275876,386.974084 C652.759483,388.037539 653.001283,389.637761 653.001283,391.774799 C653.001283,392.726844 652.950908,393.618107 652.850156,394.448615 C652.497526,397.233854 651.303639,398.626452 649.26846,398.626452 Z M671.627315,374.015192 L674,374.015192 L661.078689,408 L658.690891,408 L671.627315,374.015192 Z" id="wb3.io/"></path>
        </g>
    </g>
</svg>