<?xml version="1.0" encoding="UTF-8"?>
<svg width="634px" height="254px" viewBox="0 0 634 254" version="1.1" xmlns="http://www.w3.org/2000/svg" xmlns:xlink="http://www.w3.org/1999/xlink">
    <!-- Generator: Sketch 51.2 (57519) - http://www.bohemiancoding.com/sketch -->
    <title>Logo Color Copy 2</title>
    <desc>Created with Sketch.</desc>
    <defs></defs>
    <g id="Page-1" stroke="none" stroke-width="1" fill="none" fill-rule="evenodd">
        <g id="Brand-Logo" transform="translate(-420.000000, -212.000000)">
            <g id="Logo-Color-Copy-2" transform="translate(420.000000, 212.000000)">
                <g id="Group" transform="translate(168.000000, 0.000000)" fill-rule="nonzero">
                    <g id="color-test">
                        <g id="Group-Copy-3" transform="translate(85.512904, 0.000000)">
                            <polygon id="Triangle" fill="#898989" points="26.4838218 0 52.9676437 42.2751323 0 42.2751323"></polygon>
                            <polygon id="Triangle-Copy-2" fill="#2F2E2E" points="79.4514655 84.5502646 105.935287 126.825397 52.9676437 126.825397"></polygon>
                            <polygon id="Triangle-Copy-4" fill="#202020" points="132.419109 169.100529 158.902931 211.375661 105.935287 211.375661"></polygon>
                            <polygon id="Triangle-Copy" fill="#3C3C3C" points="52.9676437 42.2751323 79.4514655 84.5502646 26.4838218 84.5502646"></polygon>
                            <polygon id="Triangle-Copy-6" fill="#656565" transform="translate(26.483822, 63.412698) scale(1, -1) translate(-26.483822, -63.412698) " points="26.4838218 42.2751323 52.9676437 84.5502646 0 84.5502646"></polygon>
                            <polygon id="Triangle-Copy-7" fill="#575757" transform="translate(52.967644, 105.687831) scale(1, -1) translate(-52.967644, -105.687831) " points="52.9676437 84.5502646 79.4514655 126.825397 26.4838218 126.825397"></polygon>
                            <polygon id="Triangle-Copy-8" fill="#333333" transform="translate(79.451466, 147.962963) scale(1, -1) translate(-79.451466, -147.962963) " points="79.4514655 126.825397 105.935287 169.100529 52.9676437 169.100529"></polygon>
                            <polygon id="Triangle-Copy-9" fill="#000000" transform="translate(105.935287, 190.238095) scale(1, -1) translate(-105.935287, -190.238095) " points="105.935287 169.100529 132.419109 211.375661 79.4514655 211.375661"></polygon>
                            <polygon id="Triangle-Copy-10" fill="#171717" transform="translate(132.419109, 232.513228) scale(1, -1) translate(-132.419109, -232.513228) " points="132.419109 211.375661 158.902931 253.650794 105.935287 253.650794"></polygon>
                            <polygon id="Triangle-Copy-3" fill="#1D1D1D" points="105.935287 126.825397 132.419109 169.100529 79.4514655 169.100529"></polygon>
                            <polygon id="Triangle-Copy-5" fill="#202020" points="158.902931 211.375661 185.386753 253.650794 132.419109 253.650794"></polygon>
                        </g>
                        <g id="Group-Copy-4" transform="translate(0.000000, 42.383809)">
                            <polygon id="Triangle-Copy-2" fill="#3C3C3C" points="79.3115862 42.253397 105.748782 84.506794 52.8743908 84.506794"></polygon>
                            <polygon id="Triangle-Copy-11" fill="#656565" points="52.8743908 0 79.3115862 42.253397 26.4371954 42.253397"></polygon>
                            <polygon id="Triangle-Copy-4" fill="#000000" points="132.185977 126.760191 158.623172 169.013588 105.748782 169.013588"></polygon>
                            <polygon id="Triangle-Copy-7" fill="#575757" transform="translate(52.874391, 63.380095) scale(1, -1) translate(-52.874391, -63.380095) " points="52.8743908 42.253397 79.3115862 84.506794 26.4371954 84.506794"></polygon>
                            <polygon id="Triangle-Copy-12" fill="#898989" transform="translate(26.437195, 21.126698) scale(1, -1) translate(-26.437195, -21.126698) " points="26.4371954 0 52.8743908 42.253397 0 42.253397"></polygon>
                            <polygon id="Triangle-Copy-8" fill="#2F2E2E" transform="translate(79.311586, 105.633492) scale(1, -1) translate(-79.311586, -105.633492) " points="79.3115862 84.506794 105.748782 126.760191 52.8743908 126.760191"></polygon>
                            <polygon id="Triangle-Copy-9" fill="#1D1D1D" transform="translate(105.748782, 147.886889) scale(1, -1) translate(-105.748782, -147.886889) " points="105.748782 126.760191 132.185977 169.013588 79.3115862 169.013588"></polygon>
                            <polygon id="Triangle-Copy-10" fill="#202020" transform="translate(132.185977, 190.140286) scale(1, -1) translate(-132.185977, -190.140286) " points="132.185977 169.013588 158.623172 211.266985 105.748782 211.266985"></polygon>
                            <polygon id="Triangle-Copy-3" fill="#333333" points="105.748782 84.506794 132.185977 126.760191 79.3115862 126.760191"></polygon>
                        </g>
                        <g id="Group-Copy-5" transform="translate(171.025807, 0.000000)">
                            <polygon id="Triangle-Copy-2" fill="#575757" points="52.8743908 42.253397 79.3115862 84.506794 26.4371954 84.506794"></polygon>
                            <polygon id="Triangle-Copy-4" fill="#000000" points="105.748782 126.760191 132.185977 169.013588 79.3115862 169.013588"></polygon>
                            <polygon id="Triangle-Copy" fill="#898989" points="26.4371954 0 52.8743908 42.253397 0 42.253397"></polygon>
                            <polygon id="Triangle-Copy-7" fill="#656565" transform="translate(26.437195, 63.380095) scale(1, -1) translate(-26.437195, -63.380095) " points="26.4371954 42.253397 52.8743908 84.506794 0 84.506794"></polygon>
                            <polygon id="Triangle-Copy-8" fill="#2F2E2E" transform="translate(52.874391, 105.633492) scale(1, -1) translate(-52.874391, -105.633492) " points="52.8743908 84.506794 79.3115862 126.760191 26.4371954 126.760191"></polygon>
                            <polygon id="Triangle-Copy-9" fill="#1D1D1D" transform="translate(79.311586, 147.886889) scale(1, -1) translate(-79.311586, -147.886889) " points="79.3115862 126.760191 105.748782 169.013588 52.8743908 169.013588"></polygon>
                            <polygon id="Triangle-Copy-10" fill="#202020" transform="translate(105.748782, 190.140286) scale(1, -1) translate(-105.748782, -190.140286) " points="105.748782 169.013588 132.185977 211.266985 79.3115862 211.266985"></polygon>
                            <polygon id="Triangle-Copy-3" fill="#333333" points="79.3115862 84.506794 105.748782 126.760191 52.8743908 126.760191"></polygon>
                            <polygon id="Triangle-Copy-5" fill="#202020" points="132.185977 169.013588 158.623172 211.266985 105.748782 211.266985"></polygon>
                        </g>
                    </g>
                    <path d="M276.774589,211.266985 L250.337393,169.013588 L223.900198,126.760191 L197.463003,84.506794 L171.025807,42.253397 L197.463003,0 L223.900198,42.253397 L250.337393,84.506794 L276.774589,126.760191 L303.211784,169.013588 L329.64898,211.266985 L276.774589,211.266985 Z M79.3115862,169.144 L52.8743908,126.890603 L26.4371954,84.6372057 L0,42.3838087 L52.8743908,42.3838087 L79.3115862,84.6372057 L105.748782,126.890603 L132.185977,169.144 L158.623172,211.397397 L132.185977,253.650794 L105.748782,211.397397 L79.3115862,169.144 Z M217.932013,253.650794 L191.448191,211.375661 L164.964369,169.100529 L138.480547,126.825397 L111.996725,84.5502646 L85.5129036,42.2751323 L111.996725,0 L138.480547,42.2751323 L164.964369,84.5502646 L191.448191,126.825397 L217.932013,169.100529 L244.415835,211.375661 L270.899656,253.650794 L217.932013,253.650794 Z" id="Combined-Shape" fill="#269883" style="mix-blend-mode: screen;"></path>
                </g>
                <polygon id="w-copy" fill="#0F2319" points="7.49913744 106.450623 0 106.450623 0 98 51.2984474 98 51.2984474 106.450623 38.2564692 106.450623 68.3617021 174.705657 99.2277171 98 106.835538 98 141.39678 174.488974 167.26337 106.450623 151.39563 106.450623 151.39563 98 189 98 189 106.450623 176.93617 106.450623 137.26682 211 128.572168 211 93.6848764 135.919463 63.4709603 211 54.8849914 211"></polygon>
                <path d="M589.637562,197.537559 C581.083977,206.512564 568.290036,211 551.255354,211 C545.60129,211 539.675484,209.896236 533.477759,207.688674 C527.280035,205.481112 521.843516,202.025063 517.16804,197.320423 C512.492563,192.615782 508.79573,186.626504 506.07743,179.352406 C503.35913,172.078309 502,163.664367 502,154.110329 C502,136.160317 507.255302,121.974231 517.766063,111.551643 C528.276824,101.129056 541.107008,95.9178404 556.257002,95.9178404 C565.825419,95.9178404 574.668823,97.8720462 582.787479,101.780516 C585.397048,103.010961 587.680386,104.386143 589.637562,105.906103 L589.637562,34.4683099 L567.130148,34.4683099 L567.130148,26 L617.907743,26 L617.907743,200.360329 L634,200.360329 L634,208.828638 L589.637562,208.828638 L589.637562,197.537559 Z M560.823723,105.254695 C541.904354,105.254695 532.444811,121.177853 532.444811,153.024648 C532.444811,176.692607 537.555138,191.602473 547.775947,197.754695 C551.32786,199.926067 555.84017,200.993643 561.313015,200.957453 C566.785859,200.921264 572.041161,199.41942 577.079077,196.451878 C582.116994,193.484336 586.303113,189.503546 589.637562,184.50939 L589.637562,117.414319 C584.055985,111.623993 576.952267,107.860337 568.326194,106.123239 C565.716626,105.544207 563.215827,105.254695 560.823723,105.254695 Z" id="d-copy" fill="#0F2319"></path>
            </g>
        </g>
    </g>
</svg>